<svg xmlns="http://www.w3.org/2000/svg" xmlns:xlink="http://www.w3.org/1999/xlink" width="260" height="49.374" viewBox="0 0 260 49.374">
  <defs>
    <clipPath id="clip-path">
      <rect id="Rectangle_15" data-name="Rectangle 15" width="260" height="49.374" fill="none"/>
    </clipPath>
  </defs>
  <g id="Group_1" data-name="Group 1" transform="translate(0 0)">
    <rect id="Rectangle_9" data-name="Rectangle 9" width="11.988" height="21.781" transform="translate(84.242 27.458)" fill="#f7002f"/>
    <rect id="Rectangle_10" data-name="Rectangle 10" width="11.988" height="21.781" transform="translate(84.242 27.458)" fill="#f7002f"/>
    <g id="Group_18" data-name="Group 18" transform="translate(0 0)">
      <g id="Group_17" data-name="Group 17" clip-path="url(#clip-path)">
        <path id="Path_10" data-name="Path 10" d="M15.386,12.542h20.93V.125H15.386A15.4,15.4,0,0,0,0,15.511V49.317H12.415V35.109H26.3a.166.166,0,0,0,.19-.19V23.127c0-.1-.062-.16-.19-.192H12.415V15.511a2.973,2.973,0,0,1,2.971-2.969" transform="translate(0 0.037)" fill="#f7002f"/>
        <path id="Path_11" data-name="Path 11" d="M54.775.179c-.174,0-.335,0-.49.008l-.012,0H30.567V49.3H42.552V12.212H54.438a4.7,4.7,0,0,1,2.242.557,5.281,5.281,0,0,1,.408,9.167c-.04.026-.082.053-.123.077s-.078.045-.119.066a4.907,4.907,0,0,1-2.407.647H46.059V34.854h8.215l.053-.014c.142,0,.291.006.448.006A17.1,17.1,0,0,0,71.627,17.512,17.1,17.1,0,0,0,54.775.179" transform="translate(9.138 0.053)" fill="#f7002f"/>
        <path id="Path_12" data-name="Path 12" d="M64.855,23.61H88.283V.182H64.855Zm5.45-5.45a25.836,25.836,0,0,0,.711-6.262,25.844,25.844,0,0,0-.711-6.262,25.831,25.831,0,0,0,6.262.712,25.85,25.85,0,0,0,6.263-.712,25.769,25.769,0,0,0-.713,6.262,25.761,25.761,0,0,0,.713,6.262,27.957,27.957,0,0,0-12.526,0" transform="translate(19.388 0.054)" fill="#f7002f"/>
        <path id="Path_13" data-name="Path 13" d="M88.452,23.78h-23.7V.077h23.7Zm-23.428-.274H88.177V.352H65.025Zm18.028-5.123-.225-.058a27.853,27.853,0,0,0-12.457,0l-.226.058.061-.226a25.725,25.725,0,0,0,.7-6.228,25.74,25.74,0,0,0-.7-6.228l-.061-.223.226.056A25.584,25.584,0,0,0,76.6,6.24a25.591,25.591,0,0,0,6.23-.708l.225-.056L83,5.7a25.667,25.667,0,0,0-.708,6.228A25.652,25.652,0,0,0,83,18.157ZM70.527,5.856a26.242,26.242,0,0,1,.659,6.073A26.25,26.25,0,0,1,70.527,18a28.326,28.326,0,0,1,12.145,0,26.249,26.249,0,0,1-.659-6.073,26.249,26.249,0,0,1,.659-6.073,26.229,26.229,0,0,1-6.074.659,26.238,26.238,0,0,1-6.071-.659" transform="translate(19.356 0.023)" fill="#f7002f"/>
        <path id="Path_14" data-name="Path 14" d="M77.009,43.087H64.748V21.032H77.009Zm-11.985-.274H76.735v-21.5H65.023Z" transform="translate(19.356 6.287)" fill="#f7002f"/>
        <path id="Path_15" data-name="Path 15" d="M88.964.393h4.589V.945H89.625V4.637h3.61v.551h-3.61V9.683h-.661Z" transform="translate(26.595 0.117)" fill="#fff"/>
        <path id="Path_16" data-name="Path 16" d="M94.217,1.7c-.342,0-.51-.188-.51-.565s.179-.579.538-.579.523.195.523.579-.179.565-.539.565Zm-.305,1.321h.661V9.633h-.661Z" transform="translate(28.013 0.165)" fill="#fff"/>
        <path id="Path_17" data-name="Path 17" d="M96.1,4.07c0-.59-.018-1.116-.056-1.585h.62L96.7,3.67h.029A2.312,2.312,0,0,1,99,2.335a2.429,2.429,0,0,1,.635.082,2.186,2.186,0,0,1,.757.384,2.106,2.106,0,0,1,.648.84,3.649,3.649,0,0,1,.277,1.49V9.1h-.661V5.186a2.919,2.919,0,0,0-.4-1.613,1.641,1.641,0,0,0-1.435-.687A1.915,1.915,0,0,0,96.84,4.415a2.216,2.216,0,0,0-.082.579V9.1H96.1Z" transform="translate(28.711 0.698)" fill="#fff"/>
        <path id="Path_18" data-name="Path 18" d="M103.691,2.27h.126a2,2,0,0,1,2.024,1.3,3.759,3.759,0,0,1,.222,1.322V7.536a9.957,9.957,0,0,0,.095,1.585l-.014.013h-.578c-.029,0-.047-.114-.055-.346l-.07-.62H105.4a2.15,2.15,0,0,1-.8.744,2.445,2.445,0,0,1-1.35.371,1.852,1.852,0,0,1-1.874-1.238,2.2,2.2,0,0,1-.082-.566V7.368a2.1,2.1,0,0,1,1.322-1.928,3.585,3.585,0,0,1,1.018-.318A6.024,6.024,0,0,1,104.71,5h.013v.526l-.027.027a4.4,4.4,0,0,0-1.916.426A1.458,1.458,0,0,0,102,7.259v.125a1.233,1.233,0,0,0,.716,1.2,1.483,1.483,0,0,0,.62.139,2,2,0,0,0,1.791-.965,1.483,1.483,0,0,0,.261-.826V4.916q0-1.639-.991-1.972a2.133,2.133,0,0,0-.69-.11h-.04a2.928,2.928,0,0,0-1.683.5,2.3,2.3,0,0,1-.22-.483,3.491,3.491,0,0,1,1.93-.578" transform="translate(30.281 0.678)" fill="#fff"/>
        <path id="Path_19" data-name="Path 19" d="M106.229,4.07c0-.59-.018-1.116-.056-1.585h.62l.042,1.185h.029a2.314,2.314,0,0,1,2.273-1.335,2.425,2.425,0,0,1,.636.082,2.191,2.191,0,0,1,.756.384,2.106,2.106,0,0,1,.648.84,3.649,3.649,0,0,1,.277,1.49V9.1h-.661V5.186a2.919,2.919,0,0,0-.4-1.613,1.639,1.639,0,0,0-1.435-.687,1.916,1.916,0,0,0-1.983,1.529,2.22,2.22,0,0,0-.083.579V9.1h-.661Z" transform="translate(31.74 0.698)" fill="#fff"/>
        <path id="Path_20" data-name="Path 20" d="M116.378,8.811a1.016,1.016,0,0,0-.123.056,1.511,1.511,0,0,1-.166.07,3.487,3.487,0,0,1-.427.136,4.528,4.528,0,0,1-1.226.166,3,3,0,0,1-2.3-.952,3.394,3.394,0,0,1-.866-2.424,3.472,3.472,0,0,1,.964-2.551,3.257,3.257,0,0,1,2.438-.979,4.1,4.1,0,0,1,1.076.139,2.337,2.337,0,0,1,.662.274l-.234.539a2.562,2.562,0,0,0-.622-.262,3.333,3.333,0,0,0-.937-.126,2.5,2.5,0,0,0-2.012.869,3.051,3.051,0,0,0-.674,2.041,2.929,2.929,0,0,0,.729,2.081,2.459,2.459,0,0,0,1.889.786,3.578,3.578,0,0,0,.992-.136,1.868,1.868,0,0,0,.359-.125l.165-.055.138-.07Z" transform="translate(33.262 0.697)" fill="#fff"/>
        <path id="Path_21" data-name="Path 21" d="M116.561,1.7q-.51,0-.51-.565c0-.384.181-.579.539-.579s.522.195.522.579-.178.565-.538.565Zm-.3,1.321h.661V9.633h-.661Z" transform="translate(34.692 0.165)" fill="#fff"/>
        <path id="Path_22" data-name="Path 22" d="M120.349,2.27h.126a2,2,0,0,1,2.025,1.3,3.79,3.79,0,0,1,.221,1.322V7.536a10.117,10.117,0,0,0,.095,1.585l-.014.013h-.578c-.029,0-.047-.114-.055-.346l-.069-.62h-.042a2.138,2.138,0,0,1-.8.744,2.439,2.439,0,0,1-1.35.371,1.85,1.85,0,0,1-1.874-1.238,2.259,2.259,0,0,1-.082-.566V7.368a2.1,2.1,0,0,1,1.322-1.928,3.585,3.585,0,0,1,1.018-.318A6.038,6.038,0,0,1,121.368,5h.014v.526l-.029.027a4.4,4.4,0,0,0-1.916.426,1.456,1.456,0,0,0-.783,1.282v.125a1.236,1.236,0,0,0,.714,1.2,1.488,1.488,0,0,0,.621.139,2,2,0,0,0,1.791-.965,1.485,1.485,0,0,0,.262-.826V4.916q0-1.639-.992-1.972a2.133,2.133,0,0,0-.69-.11h-.04a2.921,2.921,0,0,0-1.682.5,2.177,2.177,0,0,1-.221-.483,3.491,3.491,0,0,1,1.93-.578" transform="translate(35.261 0.678)" fill="#fff"/>
        <rect id="Rectangle_11" data-name="Rectangle 11" width="0.661" height="9.801" transform="translate(159.88)" fill="#fff"/>
        <path id="Path_23" data-name="Path 23" d="M130.193.265h.179a2.979,2.979,0,0,1,2.867,1.405,2.739,2.739,0,0,1,.261,1.186v.07a2.671,2.671,0,0,1-2.067,2.726,5.016,5.016,0,0,1-1.367.194l-.192-.013h-.261l-.026-.029V5.282l.012-.013V5.254l.346.014h.275a2.56,2.56,0,0,0,2.316-1.076,2.559,2.559,0,0,0,.288-1.226,1.912,1.912,0,0,0-1.4-1.97,3.662,3.662,0,0,0-1.146-.168h-.04a6.53,6.53,0,0,0-1.3.113V9.719l-.027.029h-.621l-.027-.029V.457a4.757,4.757,0,0,1,1.159-.165c.2-.019.459-.027.772-.027" transform="translate(38.343 0.079)" fill="#fff"/>
        <rect id="Rectangle_12" data-name="Rectangle 12" width="0.661" height="9.801" transform="translate(173.265)" fill="#fff"/>
        <path id="Path_24" data-name="Path 24" d="M137.558,2.27h.123a2,2,0,0,1,2.026,1.3,3.76,3.76,0,0,1,.221,1.322V7.536a9.928,9.928,0,0,0,.1,1.585l-.014.013h-.579c-.027,0-.046-.114-.056-.346l-.068-.62h-.04a2.147,2.147,0,0,1-.8.744,2.445,2.445,0,0,1-1.35.371,1.854,1.854,0,0,1-1.876-1.238,2.266,2.266,0,0,1-.083-.566V7.368a2.1,2.1,0,0,1,1.322-1.928,3.617,3.617,0,0,1,1.021-.318A6,6,0,0,1,138.578,5h.013v.526l-.029.027a4.386,4.386,0,0,0-1.913.426,1.456,1.456,0,0,0-.786,1.282v.125a1.237,1.237,0,0,0,.716,1.2,1.484,1.484,0,0,0,.621.139,2,2,0,0,0,1.791-.965,1.493,1.493,0,0,0,.261-.826V4.916q0-1.639-.992-1.972a2.125,2.125,0,0,0-.688-.11h-.042a2.927,2.927,0,0,0-1.682.5,2.3,2.3,0,0,1-.219-.483,3.488,3.488,0,0,1,1.93-.578" transform="translate(40.405 0.678)" fill="#fff"/>
        <path id="Path_25" data-name="Path 25" d="M140.308,4.07c0-.59-.018-1.116-.056-1.585h.62l.042,1.185h.029a2.312,2.312,0,0,1,2.273-1.335,2.422,2.422,0,0,1,.635.082,2.185,2.185,0,0,1,.757.384,2.106,2.106,0,0,1,.648.84,3.671,3.671,0,0,1,.277,1.49V9.1h-.661V5.186a2.919,2.919,0,0,0-.4-1.613,1.641,1.641,0,0,0-1.435-.687,1.915,1.915,0,0,0-1.985,1.529,2.216,2.216,0,0,0-.082.579V9.1h-.661Z" transform="translate(41.927 0.698)" fill="#fff"/>
        <path id="Path_26" data-name="Path 26" d="M145.57,4.07c0-.59-.018-1.116-.056-1.585h.622l.039,1.185h.029a2.315,2.315,0,0,1,2.276-1.335,2.427,2.427,0,0,1,.634.082,2.157,2.157,0,0,1,.756.384,2.121,2.121,0,0,1,.649.84,3.672,3.672,0,0,1,.275,1.49V9.1h-.661V5.186a2.9,2.9,0,0,0-.4-1.613,1.637,1.637,0,0,0-1.435-.687,1.916,1.916,0,0,0-1.983,1.529,2.216,2.216,0,0,0-.082.579V9.1h-.662Z" transform="translate(43.5 0.698)" fill="#fff"/>
        <path id="Path_27" data-name="Path 27" d="M151.6,1.7q-.51,0-.51-.565c0-.384.179-.579.538-.579s.523.195.523.579-.178.565-.538.565Zm-.3,1.321h.661V9.633h-.661Z" transform="translate(45.166 0.165)" fill="#fff"/>
        <path id="Path_28" data-name="Path 28" d="M153.475,4.07c0-.59-.018-1.116-.056-1.585h.62l.042,1.185h.031a2.306,2.306,0,0,1,2.271-1.335,2.439,2.439,0,0,1,.637.082,2.191,2.191,0,0,1,.756.384,2.106,2.106,0,0,1,.648.84,3.693,3.693,0,0,1,.277,1.49V9.1h-.661V5.186a2.919,2.919,0,0,0-.4-1.613,1.639,1.639,0,0,0-1.435-.687,1.916,1.916,0,0,0-1.983,1.529,2.219,2.219,0,0,0-.083.579V9.1h-.661Z" transform="translate(45.863 0.698)" fill="#fff"/>
        <path id="Path_29" data-name="Path 29" d="M161.677,2.27h.123a2.341,2.341,0,0,1,2.137,1.185.176.176,0,0,0,.07.1h.013a9.049,9.049,0,0,1,.053-1.13h.579l.016.016h.013c-.036.412-.056.937-.056,1.569V8.071a4.464,4.464,0,0,1-.757,3,2.366,2.366,0,0,1-.812.607,3.523,3.523,0,0,1-1.628.373,3.794,3.794,0,0,1-2.137-.579V11.45a4.606,4.606,0,0,1,.234-.525,3.5,3.5,0,0,0,1.889.551h.042l.053.014.07-.014h.069a2.186,2.186,0,0,0,1.82-.84,2.727,2.727,0,0,0,.4-.992,6.742,6.742,0,0,0,.082-1.2V5.193a2.086,2.086,0,0,0-.233-1.159,2.092,2.092,0,0,0-1.943-1.2,2.2,2.2,0,0,0-2.042,1.3,3.713,3.713,0,0,0-.344,1.652,2.9,2.9,0,0,0,.938,2.3,2.229,2.229,0,0,0,1.433.483,2.189,2.189,0,0,0,1.517-.634h.012v.647a2.773,2.773,0,0,1-3.775-.426,3.476,3.476,0,0,1-.8-2.26V5.772a3.629,3.629,0,0,1,1.061-2.7,2.793,2.793,0,0,1,1.9-.8" transform="translate(47.446 0.678)" fill="#fff"/>
        <rect id="Rectangle_13" data-name="Rectangle 13" width="0.661" height="9.29" transform="translate(115.56 15.994)" fill="#fff"/>
        <path id="Path_30" data-name="Path 30" d="M90.792,15.991c0-.59-.018-1.116-.056-1.585h.62l.042,1.185h.029A2.316,2.316,0,0,1,93.7,14.256a2.371,2.371,0,0,1,.635.083,2.161,2.161,0,0,1,.757.383,2.11,2.11,0,0,1,.648.842,3.639,3.639,0,0,1,.277,1.489v3.97h-.661V17.107a2.919,2.919,0,0,0-.4-1.613,1.641,1.641,0,0,0-1.435-.687,1.916,1.916,0,0,0-1.983,1.529,2.236,2.236,0,0,0-.083.579v4.107h-.661Z" transform="translate(27.125 4.262)" fill="#fff"/>
        <path id="Path_31" data-name="Path 31" d="M96.308,20.154a3.1,3.1,0,0,0,.66.305,2.423,2.423,0,0,0,.827.149q1.543,0,1.544-1.255,0-.937-1.392-1.5c-1.122-.422-1.682-1.026-1.682-1.806a1.641,1.641,0,0,1,.539-1.256,2.123,2.123,0,0,1,1.5-.535,2.456,2.456,0,0,1,1.461.413l-.247.536a2.2,2.2,0,0,0-.5-.26,2.429,2.429,0,0,0-.826-.138q-1.282,0-1.283,1.142,0,.785,1.366,1.352,1.707.676,1.707,1.969a1.694,1.694,0,0,1-.605,1.365,2.435,2.435,0,0,1-1.626.526,3.117,3.117,0,0,1-1.68-.456Z" transform="translate(28.72 4.262)" fill="#fff"/>
        <path id="Path_32" data-name="Path 32" d="M101.532,13.247v1.461h1.889v.538h-1.889v4.3c0,.909.321,1.364.966,1.364a2.46,2.46,0,0,0,.756-.095l.083.5a2.64,2.64,0,0,1-.922.151,1.366,1.366,0,0,1-1.129-.455,2.386,2.386,0,0,1-.416-1.587V15.246H99.756v-.538h1.114V13.5Z" transform="translate(29.821 3.96)" fill="#fff"/>
        <path id="Path_33" data-name="Path 33" d="M104.051,13.616c-.339,0-.51-.187-.51-.564s.182-.581.539-.581.525.195.525.581-.179.564-.538.564Zm-.3,1.322h.661v6.617h-.661Z" transform="translate(30.953 3.728)" fill="#fff"/>
        <path id="Path_34" data-name="Path 34" d="M107.028,13.247v1.461h1.889v.538h-1.889v4.3q0,1.364.966,1.364a2.471,2.471,0,0,0,.756-.095l.083.5a2.64,2.64,0,0,1-.922.151,1.375,1.375,0,0,1-1.131-.455,2.4,2.4,0,0,1-.413-1.587V15.246h-1.116v-.538h1.116V13.5Z" transform="translate(31.464 3.96)" fill="#fff"/>
        <path id="Path_35" data-name="Path 35" d="M114.309,19.375q0,.939.056,1.612h-.62L113.7,19.8h-.029a2.564,2.564,0,0,1-2.26,1.335,2.194,2.194,0,0,1-.7-.11,1.9,1.9,0,0,1-.746-.412,2.327,2.327,0,0,1-.578-.9,4.262,4.262,0,0,1-.234-1.5V14.371h.661v3.721a3.292,3.292,0,0,0,.386,1.764,1.477,1.477,0,0,0,1.364.705,1.954,1.954,0,0,0,1.227-.429,2.13,2.13,0,0,0,.731-.909,2.329,2.329,0,0,0,.123-.731V14.371h.661Z" transform="translate(32.631 4.296)" fill="#fff"/>
        <path id="Path_36" data-name="Path 36" d="M115.941,13.247v1.461h1.889v.538h-1.889v4.3c0,.909.32,1.364.966,1.364a2.471,2.471,0,0,0,.756-.095l.083.5a2.658,2.658,0,0,1-.924.151,1.372,1.372,0,0,1-1.13-.455,2.4,2.4,0,0,1-.413-1.587V15.246h-1.116v-.538h1.116V13.5Z" transform="translate(34.128 3.96)" fill="#fff"/>
        <path id="Path_37" data-name="Path 37" d="M120.645,14.191h.123a2.329,2.329,0,0,1,2.315,1.669,4.094,4.094,0,0,1,.248,1.405c-.008.238-.026.357-.053.357h-4.232l-.029-.014V17.54c.01-.3.032-.455.069-.455h3.542v-.013a2.544,2.544,0,0,0-.62-1.791,1.86,1.86,0,0,0-1.377-.526,2.125,2.125,0,0,0-2.028,1.5,4.1,4.1,0,0,0-.248,1.379v.207a2.864,2.864,0,0,0,.911,2.2,2.435,2.435,0,0,0,1.6.552h.123a3.837,3.837,0,0,0,1.763-.371,2.538,2.538,0,0,1,.181.523,4.486,4.486,0,0,1-2.121.44,2.942,2.942,0,0,1-2.523-1.253A3.615,3.615,0,0,1,117.7,17.9v-.164a3.867,3.867,0,0,1,.937-2.66,2.715,2.715,0,0,1,2.012-.883" transform="translate(35.184 4.242)" fill="#fff"/>
        <path id="Path_38" data-name="Path 38" d="M130.716,20.3a2.932,2.932,0,0,1-2.191.911,2.862,2.862,0,0,1-2.217-.938,3.542,3.542,0,0,1-.856-2.467,3.619,3.619,0,0,1,.882-2.537,2.984,2.984,0,0,1,1.9-.965v.551a2.305,2.305,0,0,0-1.518.952,3.206,3.206,0,0,0-.6,1.972,3.292,3.292,0,0,0,.564,1.9,2.121,2.121,0,0,0,1.86.978,2.187,2.187,0,0,0,1.872-.922,3.329,3.329,0,0,0,.595-2,3.186,3.186,0,0,0-.607-1.958,2.212,2.212,0,0,0-1.516-.925v-.564a2.792,2.792,0,0,1,1.983,1.005,3.6,3.6,0,0,1,.8,2.4,3.578,3.578,0,0,1-.951,2.6" transform="translate(37.502 4.271)" fill="#fff"/>
        <path id="Path_39" data-name="Path 39" d="M131.75,21.752V15.674H130.8v-.539h.951v-.359a3.275,3.275,0,0,1,.73-2.382,2.019,2.019,0,0,1,1.474-.579,1.885,1.885,0,0,1,.991.234l-.207.495a1.564,1.564,0,0,0-.343-.123,2.073,2.073,0,0,0-.5-.055,1.249,1.249,0,0,0-1.212.716,4.01,4.01,0,0,0-.277,1.682v.371h1.764v.539h-1.764v6.078Z" transform="translate(39.101 3.532)" fill="#fff"/>
        <path id="Path_40" data-name="Path 40" d="M136.862,20.615a3.482,3.482,0,0,0,2.024.605q2.247,0,2.246-1.929,0-1.446-1.887-2.164a4.634,4.634,0,0,1-1.75-1.02,2.1,2.1,0,0,1-.633-1.543,2.176,2.176,0,0,1,.755-1.7,2.863,2.863,0,0,1,1.946-.661,4.56,4.56,0,0,1,1.131.138,2.432,2.432,0,0,1,.714.29l-.247.566a2.411,2.411,0,0,0-.608-.29,3.456,3.456,0,0,0-1.033-.153,2.066,2.066,0,0,0-1.57.579,1.566,1.566,0,0,0-.442,1.117q0,1.309,1.928,2.067a5.1,5.1,0,0,1,1.752,1.061A2.549,2.549,0,0,1,141.05,21a3.057,3.057,0,0,1-2.217.774,3.639,3.639,0,0,1-2.22-.623Z" transform="translate(40.839 3.649)" fill="#fff"/>
        <path id="Path_41" data-name="Path 41" d="M146.738,20.3a2.937,2.937,0,0,1-2.193.911,2.864,2.864,0,0,1-2.217-.938,3.548,3.548,0,0,1-.856-2.467,3.619,3.619,0,0,1,.882-2.537,2.987,2.987,0,0,1,1.9-.965v.551a2.3,2.3,0,0,0-1.516.952,3.2,3.2,0,0,0-.607,1.972,3.293,3.293,0,0,0,.565,1.9,2.123,2.123,0,0,0,1.861.978,2.2,2.2,0,0,0,1.874-.922,3.354,3.354,0,0,0,.591-2,3.186,3.186,0,0,0-.607-1.958,2.21,2.21,0,0,0-1.516-.925v-.564a2.8,2.8,0,0,1,1.985,1.005,3.6,3.6,0,0,1,.8,2.4,3.577,3.577,0,0,1-.95,2.6" transform="translate(42.292 4.271)" fill="#fff"/>
        <path id="Path_42" data-name="Path 42" d="M152.421,19.375q0,.939.056,1.612h-.62l-.042-1.183h-.029a2.573,2.573,0,0,1-2.26,1.335,2.188,2.188,0,0,1-.7-.11,1.891,1.891,0,0,1-.746-.412,2.328,2.328,0,0,1-.578-.9,4.26,4.26,0,0,1-.235-1.5V14.371h.661v3.721a3.291,3.291,0,0,0,.387,1.764,1.477,1.477,0,0,0,1.364.705,1.954,1.954,0,0,0,1.228-.429,2.114,2.114,0,0,0,.729-.909,2.262,2.262,0,0,0,.126-.731V14.371h.661Z" transform="translate(44.024 4.296)" fill="#fff"/>
        <path id="Path_43" data-name="Path 43" d="M154.051,13.247v1.461h1.889v.538h-1.889v4.3q0,1.364.966,1.364a2.486,2.486,0,0,0,.757-.095l.082.5a2.655,2.655,0,0,1-.922.151,1.375,1.375,0,0,1-1.131-.455,2.409,2.409,0,0,1-.413-1.587V15.246h-1.116v-.538h1.116V13.5Z" transform="translate(45.521 3.96)" fill="#fff"/>
        <path id="Path_44" data-name="Path 44" d="M156.221,11.921h.66v4.368h.029a2.339,2.339,0,0,1,.895-.951,2.534,2.534,0,0,1,1.337-.384,2.425,2.425,0,0,1,.621.083,2.161,2.161,0,0,1,.759.386,1.978,1.978,0,0,1,.647.84,3.578,3.578,0,0,1,.274,1.474v3.984h-.661V17.807a2.8,2.8,0,0,0-.4-1.586,1.6,1.6,0,0,0-1.416-.69,1.984,1.984,0,0,0-2,1.49,2.216,2.216,0,0,0-.082.661v4.04h-.66Z" transform="translate(46.701 3.564)" fill="#fff"/>
        <path id="Path_45" data-name="Path 45" d="M164.231,14.191h.123a2.329,2.329,0,0,1,2.315,1.669,4.094,4.094,0,0,1,.248,1.405c-.008.238-.026.357-.055.357h-4.231l-.029-.014V17.54c.01-.3.032-.455.069-.455h3.542v-.013a2.539,2.539,0,0,0-.621-1.791,1.857,1.857,0,0,0-1.378-.526,2.127,2.127,0,0,0-2.026,1.5,4.1,4.1,0,0,0-.247,1.379v.207a2.863,2.863,0,0,0,.909,2.2,2.441,2.441,0,0,0,1.6.552h.122a3.846,3.846,0,0,0,1.764-.371,2.747,2.747,0,0,1,.181.523,4.49,4.49,0,0,1-2.124.44,2.941,2.941,0,0,1-2.52-1.253,3.6,3.6,0,0,1-.592-2.041v-.164a3.866,3.866,0,0,1,.935-2.66,2.715,2.715,0,0,1,2.013-.883" transform="translate(48.214 4.242)" fill="#fff"/>
        <path id="Path_46" data-name="Path 46" d="M166.768,16.391q0-1.114-.056-1.983h.608l.027,1.335h.042a1.9,1.9,0,0,1,1.873-1.487.71.71,0,0,1,.139.014.628.628,0,0,1,.138.014V14.9a.9.9,0,0,0-.151-.013h-.166q-1.418,0-1.738,1.846a3.168,3.168,0,0,0-.055.635v3.653h-.661Z" transform="translate(49.837 4.262)" fill="#fff"/>
        <path id="Path_47" data-name="Path 47" d="M169.909,15.991c0-.59-.018-1.116-.056-1.585h.62l.042,1.185h.029a2.316,2.316,0,0,1,2.273-1.335,2.387,2.387,0,0,1,.636.083,2.166,2.166,0,0,1,.756.383,2.11,2.11,0,0,1,.648.842,3.682,3.682,0,0,1,.277,1.489v3.97h-.661V17.107a2.92,2.92,0,0,0-.4-1.613,1.641,1.641,0,0,0-1.435-.687,1.914,1.914,0,0,0-1.983,1.529,2.182,2.182,0,0,0-.083.579v4.107h-.661Z" transform="translate(50.776 4.262)" fill="#fff"/>
        <path id="Path_48" data-name="Path 48" d="M181.5,12.207a5.5,5.5,0,0,1,.29.8l3.115,8.615-.013.014h-.661q-.031,0-.539-1.49l-.661-1.82h-3.019a2.941,2.941,0,0,1,.22-.551h2.578l-.746-2.2q-.509-1.434-.881-2.591a1.439,1.439,0,0,0-.152.427q-1.4,4.08-2.88,8.229h-.661l-.029-.029,3.4-9.4Z" transform="translate(53.05 3.649)" fill="#fff"/>
        <path id="Path_49" data-name="Path 49" d="M184.333,21.752V15.674h-.951v-.539h.951v-.359a3.275,3.275,0,0,1,.73-2.382,2.018,2.018,0,0,1,1.474-.579,1.893,1.893,0,0,1,.992.234l-.205.495a1.689,1.689,0,0,0-.346-.123,2.073,2.073,0,0,0-.5-.055,1.249,1.249,0,0,0-1.212.716,4.031,4.031,0,0,0-.277,1.682v.371h1.764v.539h-1.764v6.078Z" transform="translate(54.82 3.532)" fill="#fff"/>
        <path id="Path_50" data-name="Path 50" d="M186.864,16.391q0-1.114-.056-1.983h.607l.027,1.335h.042a1.9,1.9,0,0,1,1.874-1.487.687.687,0,0,1,.138.014.593.593,0,0,1,.136.014V14.9a.869.869,0,0,0-.151-.013h-.165q-1.418,0-1.735,1.846a3.065,3.065,0,0,0-.056.635v3.653h-.661Z" transform="translate(55.845 4.262)" fill="#fff"/>
        <path id="Path_51" data-name="Path 51" d="M190.343,13.616c-.342,0-.511-.187-.511-.564s.179-.581.535-.581.523.195.523.581-.177.564-.536.564Zm-.305,1.322h.661v6.617h-.661Z" transform="translate(56.749 3.728)" fill="#fff"/>
        <path id="Path_52" data-name="Path 52" d="M196.684,20.733a1.12,1.12,0,0,0-.123.056,1.151,1.151,0,0,1-.165.066,3.177,3.177,0,0,1-.429.139,4.528,4.528,0,0,1-1.226.166,3,3,0,0,1-2.3-.95,3.412,3.412,0,0,1-.866-2.426,3.471,3.471,0,0,1,.964-2.55,3.247,3.247,0,0,1,2.438-.979,4.1,4.1,0,0,1,1.076.138,2.355,2.355,0,0,1,.662.275l-.234.538a2.509,2.509,0,0,0-.622-.261,3.335,3.335,0,0,0-.937-.123,2.481,2.481,0,0,0-2.012.869,3.04,3.04,0,0,0-.674,2.038,2.935,2.935,0,0,0,.729,2.081,2.463,2.463,0,0,0,1.889.785,3.577,3.577,0,0,0,.992-.135,2.11,2.11,0,0,0,.359-.126l.165-.055.138-.068Z" transform="translate(57.269 4.261)" fill="#fff"/>
        <path id="Path_53" data-name="Path 53" d="M198.65,14.191h.123a2,2,0,0,1,2.026,1.3,3.771,3.771,0,0,1,.221,1.322v2.646a9.921,9.921,0,0,0,.1,1.585l-.014.013h-.579c-.027,0-.045-.114-.056-.344l-.068-.621h-.04a2.126,2.126,0,0,1-.8.744,2.434,2.434,0,0,1-1.35.371,1.851,1.851,0,0,1-1.876-1.239,2.225,2.225,0,0,1-.083-.565v-.11a2.1,2.1,0,0,1,1.322-1.929,3.617,3.617,0,0,1,1.021-.318,6.024,6.024,0,0,1,1.076-.125h.013v.525l-.029.029a4.386,4.386,0,0,0-1.913.426,1.456,1.456,0,0,0-.786,1.282v.126a1.236,1.236,0,0,0,.716,1.2,1.463,1.463,0,0,0,.62.139,2,2,0,0,0,1.793-.964,1.5,1.5,0,0,0,.261-.827V16.837c0-1.092-.331-1.751-.992-1.969a2.025,2.025,0,0,0-.688-.113h-.042a2.934,2.934,0,0,0-1.682.5,2.308,2.308,0,0,1-.219-.482,3.479,3.479,0,0,1,1.93-.579" transform="translate(58.668 4.242)" fill="#fff"/>
        <path id="Path_54" data-name="Path 54" d="M90.6,29.763H88.9V28.255h5.239v1.508H92.4v5.18H90.6Z" transform="translate(26.575 8.446)" fill="#fff"/>
        <path id="Path_55" data-name="Path 55" d="M95.361,28.255v2.481h2.174V28.255H99.33v6.688H97.536V32.3H95.361v2.639h-1.8V28.255Z" transform="translate(27.97 8.446)" fill="#fff"/>
        <path id="Path_56" data-name="Path 56" d="M102.937,32.244h-2.4v1.23h2.69v1.468H98.738V28.255h4.348v1.468h-2.551V30.8h2.4Z" transform="translate(29.517 8.446)" fill="#fff"/>
        <path id="Path_57" data-name="Path 57" d="M107.1,28.156h.209a2.685,2.685,0,0,1,2.6,1.152,2.254,2.254,0,0,1,.249,1.033,2.136,2.136,0,0,1-1.6,2.182,4.472,4.472,0,0,1-1.278.19l-.01-.012v-1.37c0-.013.088-.025.268-.038a1.6,1.6,0,0,0,.407-.16.869.869,0,0,0,.408-.755.777.777,0,0,0-.577-.794,1.88,1.88,0,0,0-.444-.06,5.266,5.266,0,0,0-.527.04v5.407l-.019.01h-1.767l-.021-.01V28.314a3.666,3.666,0,0,1,.607-.078,12.965,12.965,0,0,1,1.5-.081" transform="translate(31.388 8.417)" fill="#fff"/>
        <path id="Path_58" data-name="Path 58" d="M111.438,28.164l.01.01V31.14h.535a1.007,1.007,0,0,0,.924-.466.828.828,0,0,0,.079-.327v-.088a.691.691,0,0,0-.457-.665,1.243,1.243,0,0,0-.466-.079h-.138l-.012-.01V28.182l.012-.018h.029q2.165,0,2.671,1.15a2.064,2.064,0,0,1,.168.853,1.779,1.779,0,0,1-.873,1.5,1.219,1.219,0,0,1-.288.139v.021a1.6,1.6,0,0,1,.338.229,2.5,2.5,0,0,1,.586,1.191c.212.839.377,1.42.5,1.746h-1.845a4.84,4.84,0,0,1-.369-1.092,5.466,5.466,0,0,0-.3-1.042.744.744,0,0,0-.737-.407h-.356v2.53l-.021.01h-1.765l-.021-.01V28.322a3.363,3.363,0,0,1,.607-.079c.568-.052.964-.079,1.19-.079" transform="translate(32.777 8.419)" fill="#fff"/>
        <path id="Path_59" data-name="Path 59" d="M119.9,34.022a3.07,3.07,0,0,1-2.412,1.043,2.981,2.981,0,0,1-2.4-1.043,3.6,3.6,0,0,1-.8-2.411,3.8,3.8,0,0,1,.8-2.521,3.016,3.016,0,0,1,2.184-1.06v1.457a1.2,1.2,0,0,0-.824.677,2.931,2.931,0,0,0-.288,1.387,2.72,2.72,0,0,0,.356,1.468,1.164,1.164,0,0,0,1.013.6,1.151,1.151,0,0,0,1.013-.6,2.7,2.7,0,0,0,.366-1.476,2.9,2.9,0,0,0-.308-1.412,1.245,1.245,0,0,0-.874-.655V28.018a2.906,2.906,0,0,1,2.263,1.072,4.051,4.051,0,0,1-.088,4.932" transform="translate(34.163 8.376)" fill="#fff"/>
        <path id="Path_60" data-name="Path 60" d="M120.018,28.255h4.3v1.469h-2.5v1.23h2.351V32.4h-2.351v2.541h-1.8Z" transform="translate(35.878 8.446)" fill="#fff"/>
        <path id="Path_61" data-name="Path 61" d="M128.378,32.244h-2.4v1.23h2.69v1.468h-4.484V28.255h4.345v1.468h-2.551V30.8h2.4Z" transform="translate(37.123 8.446)" fill="#fff"/>
        <path id="Path_62" data-name="Path 62" d="M128.567,33.18a3.619,3.619,0,0,0,.764.288,3.892,3.892,0,0,0,.972.129c.609,0,.914-.181.914-.544,0-.273-.352-.527-1.051-.766A3.77,3.77,0,0,1,128.8,31.5a1.672,1.672,0,0,1-.518-1.229,1.819,1.819,0,0,1,.717-1.49,3,3,0,0,1,1.972-.6,5.107,5.107,0,0,1,1.043.1,3.593,3.593,0,0,1,.765.238l-.379,1.439a.584.584,0,0,0-.118-.049,1.062,1.062,0,0,0-.139-.051,2.089,2.089,0,0,0-.326-.109,3.555,3.555,0,0,0-.864-.11c-.562,0-.844.168-.844.5,0,.217.4.481,1.2.785q1.736.645,1.737,2.013a1.856,1.856,0,0,1-.695,1.5,3.255,3.255,0,0,1-2.154.635,5.234,5.234,0,0,1-1.142-.129,3.6,3.6,0,0,1-.822-.279Z" transform="translate(38.334 8.424)" fill="#fff"/>
        <path id="Path_63" data-name="Path 63" d="M132.853,33.18a3.566,3.566,0,0,0,.764.288,3.884,3.884,0,0,0,.972.129c.609,0,.914-.181.914-.544q0-.409-1.053-.766a3.793,3.793,0,0,1-1.369-.783,1.675,1.675,0,0,1-.516-1.229,1.822,1.822,0,0,1,.716-1.49,3.006,3.006,0,0,1,1.973-.6,5.116,5.116,0,0,1,1.043.1,3.559,3.559,0,0,1,.764.238l-.378,1.439a.653.653,0,0,0-.118-.049,1.062,1.062,0,0,0-.139-.051,2.091,2.091,0,0,0-.326-.109,3.564,3.564,0,0,0-.864-.11c-.562,0-.846.168-.846.5,0,.217.4.481,1.2.785q1.734.645,1.737,2.013a1.857,1.857,0,0,1-.7,1.5,3.255,3.255,0,0,1-2.154.635,5.232,5.232,0,0,1-1.14-.129,3.613,3.613,0,0,1-.824-.279Z" transform="translate(39.614 8.424)" fill="#fff"/>
        <rect id="Rectangle_14" data-name="Rectangle 14" width="1.798" height="6.688" transform="translate(177.915 36.702)" fill="#fff"/>
        <path id="Path_64" data-name="Path 64" d="M144.7,34.022a3.068,3.068,0,0,1-2.411,1.043,2.984,2.984,0,0,1-2.4-1.043,3.609,3.609,0,0,1-.8-2.411,3.811,3.811,0,0,1,.8-2.521,3.016,3.016,0,0,1,2.184-1.06v1.457a1.2,1.2,0,0,0-.824.677,2.931,2.931,0,0,0-.288,1.387,2.7,2.7,0,0,0,.358,1.468,1.157,1.157,0,0,0,2.024,0,2.7,2.7,0,0,0,.368-1.476,2.909,2.909,0,0,0-.308-1.412,1.247,1.247,0,0,0-.875-.655V28.018a2.9,2.9,0,0,1,2.263,1.072,4.051,4.051,0,0,1-.088,4.932" transform="translate(41.579 8.376)" fill="#fff"/>
        <path id="Path_65" data-name="Path 65" d="M144.822,34.943V28.256h2.113L148,30.31q.261.475.557,1.12c.173.4.336.805.5,1.221h.031a25.179,25.179,0,0,1-.14-2.807V28.256h1.637v6.687h-1.885L147.55,32.72c-.2-.388-.4-.781-.575-1.17-.217-.452-.4-.865-.546-1.24h-.039c.047.839.069,1.837.069,2.986v1.647Z" transform="translate(43.293 8.447)" fill="#fff"/>
        <path id="Path_66" data-name="Path 66" d="M154.213,28.233a2.431,2.431,0,0,1,.187.575l1.828,6.122-.009.009h-1.925a3.456,3.456,0,0,1-.16-.546l-.279-1.011h-1.347v-.01l.268-1.32h.834l-.647-2.521h-.008l-1.2,5.4-.01.009h-1.834l-.022-.019,1.947-6.687Z" transform="translate(44.807 8.44)" fill="#fff"/>
        <path id="Path_67" data-name="Path 67" d="M155.41,28.255h1.8v5.191h2.569v1.5H155.41Z" transform="translate(46.459 8.446)" fill="#fff"/>
        <path id="Path_68" data-name="Path 68" d="M161.337,33.18a3.621,3.621,0,0,0,.764.288,3.884,3.884,0,0,0,.972.129c.611,0,.913-.181.913-.544,0-.273-.348-.527-1.051-.766a3.792,3.792,0,0,1-1.369-.783,1.676,1.676,0,0,1-.517-1.229,1.821,1.821,0,0,1,.716-1.49,3.005,3.005,0,0,1,1.974-.6,5.081,5.081,0,0,1,1.04.1,3.593,3.593,0,0,1,.765.238l-.375,1.439a.764.764,0,0,0-.121-.049,1,1,0,0,0-.139-.051,2.017,2.017,0,0,0-.327-.109,3.521,3.521,0,0,0-.863-.11c-.564,0-.843.168-.843.5,0,.217.4.481,1.2.785q1.74.645,1.739,2.013a1.859,1.859,0,0,1-.695,1.5,3.255,3.255,0,0,1-2.152.635,5.257,5.257,0,0,1-1.144-.129,3.585,3.585,0,0,1-.821-.279Z" transform="translate(48.13 8.424)" fill="#fff"/>
        <path id="Path_69" data-name="Path 69" d="M166.847,29.763H165.14V28.255h5.239v1.508h-1.735v5.18h-1.8Z" transform="translate(49.367 8.446)" fill="#fff"/>
        <path id="Path_70" data-name="Path 70" d="M173.6,28.233a2.43,2.43,0,0,1,.187.575l1.828,6.122-.009.009h-1.925a3.135,3.135,0,0,1-.16-.546l-.279-1.011H171.9v-.01l.268-1.32H173l-.646-2.521h-.009l-1.2,5.4-.01.009H169.3l-.022-.019,1.945-6.687Z" transform="translate(50.603 8.44)" fill="#fff"/>
        <path id="Path_71" data-name="Path 71" d="M174.8,34.943V28.256h2.113l1.061,2.054q.259.475.559,1.12.255.6.494,1.221h.031a25.183,25.183,0,0,1-.14-2.807V28.256h1.637v6.687h-1.885l-1.142-2.222c-.2-.388-.4-.781-.574-1.17q-.327-.678-.547-1.24h-.039c.047.839.069,1.837.069,2.986v1.647Z" transform="translate(52.254 8.447)" fill="#fff"/>
        <path id="Path_72" data-name="Path 72" d="M182.091,28.117h.218a3.964,3.964,0,0,1,3.343,1.26,3.31,3.31,0,0,1,.626,2.074,3.341,3.341,0,0,1-1.489,3.038,4.046,4.046,0,0,1-.9.377,5.165,5.165,0,0,1-1.1.217l-.438.039-.009-.009V33.7l.009-.009h.031a1.913,1.913,0,0,0,1.509-.673,2.383,2.383,0,0,0,.435-1.441v-.148a1.845,1.845,0,0,0-.665-1.529,1.984,1.984,0,0,0-1.251-.378,3.112,3.112,0,0,0-.555.04v5.546l-.019.009h-.1a10.824,10.824,0,0,1-1.716-.117l-.009-.01V28.275a3.583,3.583,0,0,1,.734-.108c.457-.032.908-.051,1.35-.051" transform="translate(53.812 8.405)" fill="#fff"/>
        <path id="Path_73" data-name="Path 73" d="M189.325,28.233a2.591,2.591,0,0,1,.187.575l1.826,6.122-.01.009H189.4a3.136,3.136,0,0,1-.16-.546l-.278-1.011h-1.348v-.01l.268-1.32h.834l-.647-2.521h-.008l-1.2,5.4-.009.009h-1.835L185,34.92l1.945-6.687Z" transform="translate(55.304 8.44)" fill="#fff"/>
        <path id="Path_74" data-name="Path 74" d="M192.242,28.164l.01.01V31.14h.534a1.007,1.007,0,0,0,.925-.466.828.828,0,0,0,.079-.327v-.088a.691.691,0,0,0-.457-.665,1.248,1.248,0,0,0-.466-.079h-.139l-.01-.01V28.182l.01-.018h.03q2.165,0,2.668,1.15a2.065,2.065,0,0,1,.17.853,1.779,1.779,0,0,1-.873,1.5,1.219,1.219,0,0,1-.288.139v.021a1.561,1.561,0,0,1,.336.229,2.476,2.476,0,0,1,.586,1.191c.213.839.378,1.42.5,1.746h-1.847a5.04,5.04,0,0,1-.366-1.092,5.147,5.147,0,0,0-.3-1.042.741.741,0,0,0-.735-.407h-.356v2.53l-.021.01h-1.765l-.022-.01V28.322a3.39,3.39,0,0,1,.607-.079c.569-.052.966-.079,1.191-.079" transform="translate(56.932 8.419)" fill="#fff"/>
        <path id="Path_75" data-name="Path 75" d="M197.419,28.117h.218a3.967,3.967,0,0,1,3.343,1.26,3.31,3.31,0,0,1,.626,2.074,3.345,3.345,0,0,1-1.49,3.038,4.021,4.021,0,0,1-.9.377,5.163,5.163,0,0,1-1.1.217l-.435.039-.009-.009V33.7l.009-.009h.031a1.911,1.911,0,0,0,1.508-.673,2.375,2.375,0,0,0,.436-1.441v-.148a1.849,1.849,0,0,0-.665-1.529,1.989,1.989,0,0,0-1.251-.378,3.091,3.091,0,0,0-.555.04v5.546l-.019.009h-.1a10.83,10.83,0,0,1-1.717-.117l-.008-.01V28.275a3.556,3.556,0,0,1,.733-.108c.457-.032.908-.051,1.351-.051" transform="translate(58.394 8.405)" fill="#fff"/>
        <path id="Path_76" data-name="Path 76" d="M233.446,42.345H88.693V41.6H233.446Zm0-18.093H88.693v-.74H233.446Z" transform="translate(26.514 7.029)" fill="#fff"/>
      </g>
    </g>
  </g>
</svg>
